<?xml version="1.0" standalone="no"?>
<!DOCTYPE svg PUBLIC "-//W3C//DTD SVG 20010904//EN"
 "http://www.w3.org/TR/2001/REC-SVG-20010904/DTD/svg10.dtd">
<svg version="1.0" xmlns="http://www.w3.org/2000/svg"
 width="760.000000pt" height="760.000000pt" viewBox="0 0 760.000000 760.000000"
 preserveAspectRatio="xMidYMid meet">
<metadata>
Created by potrace 1.14, written by Peter Selinger 2001-2017
</metadata>
<g transform="translate(0.000000,760.000000) scale(0.100000,-0.100000)"
fill="#000000" stroke="none">
<path d="M392 7130 c-18 -5 -18 -81 -18 -3304 1 -3261 1 -3299 20 -3306 11 -4
34 -4 50 0 17 3 50 3 74 0 23 -4 45 -4 47 0 2 4 24 4 47 1 24 -4 57 -4 73 -1
17 3 49 3 73 -1 23 -3 45 -3 47 1 2 4 24 4 47 1 24 -4 57 -4 73 -1 17 3 49 3
73 -1 23 -3 45 -3 47 1 2 4 24 4 47 1 24 -4 57 -4 73 -1 17 3 49 3 73 -1 23
-3 42 -2 42 3 0 5 7 5 17 0 9 -5 28 -6 43 -2 15 4 33 4 40 0 7 -4 25 -4 40 0
15 4 33 4 40 0 7 -4 25 -4 40 0 15 4 33 4 40 0 7 -4 25 -4 40 0 15 4 33 4 40
0 7 -4 25 -4 40 0 15 4 33 4 40 0 7 -4 25 -4 40 0 15 4 33 4 40 0 7 -4 25 -4
41 0 15 5 30 6 32 3 7 -6 146 -7 153 -1 2 3 23 2 47 -1 23 -4 56 -4 72 -1 17
3 49 3 73 -1 23 -3 45 -3 47 1 2 4 24 4 47 1 24 -4 57 -4 73 -1 17 3 49 3 73
-1 23 -3 45 -3 47 1 2 4 24 4 47 1 24 -4 57 -4 73 -1 17 3 49 3 73 -1 23 -3
45 -3 47 1 2 4 24 4 47 1 24 -4 57 -4 73 -1 17 3 49 3 73 -1 23 -3 45 -3 47 1
2 4 24 4 47 1 24 -4 57 -4 73 -1 17 3 49 3 73 -1 23 -3 42 -2 42 3 0 5 7 5 17
0 9 -5 28 -6 43 -2 15 4 33 4 40 0 7 -4 25 -4 40 0 15 4 33 4 40 0 7 -4 25 -4
40 0 15 4 33 4 40 0 7 -4 25 -4 40 0 15 4 33 4 40 0 7 -4 25 -4 40 0 15 4 33
4 40 0 7 -4 25 -4 40 0 15 4 33 4 40 0 7 -4 25 -4 41 0 15 5 30 6 32 3 7 -6
146 -7 153 -1 2 3 23 2 47 -1 23 -4 56 -4 72 -1 17 3 49 3 73 -1 23 -3 45 -3
47 1 2 4 24 4 47 1 24 -4 57 -4 73 -1 17 3 49 3 73 -1 23 -3 45 -3 47 1 2 4
24 4 47 1 24 -4 57 -4 73 -1 17 3 49 3 73 -1 23 -3 45 -3 47 1 2 4 24 4 47 1
24 -4 57 -4 73 -1 17 3 49 3 73 -1 23 -3 45 -2 48 3 3 4 9 6 14 3 8 -5 57 -6
130 -4 8 0 50 -1 92 -2 43 -1 80 0 83 3 3 2 24 2 48 -1 23 -4 56 -4 72 -1 17
3 49 3 73 -1 23 -3 45 -3 47 1 2 4 24 4 47 1 24 -4 57 -4 73 -1 17 3 49 3 73
-1 23 -3 45 -3 47 1 2 4 24 4 47 1 24 -4 57 -4 73 -1 17 3 49 3 73 -1 23 -3
45 -3 47 1 2 4 24 4 47 1 24 -4 57 -4 73 -1 17 3 49 3 73 -1 23 -3 45 -3 47 1
2 4 24 4 47 1 24 -4 57 -4 73 -1 17 3 49 3 73 -1 23 -3 42 -2 42 3 0 5 7 5 17
0 9 -5 28 -6 43 -2 15 4 33 4 40 0 7 -4 25 -4 40 0 15 4 33 4 40 0 7 -4 25 -4
40 0 15 4 33 4 40 0 7 -4 25 -4 40 0 15 4 33 4 40 0 7 -4 25 -4 40 0 15 4 33
4 40 0 7 -4 25 -4 40 0 15 4 33 4 40 0 7 -4 25 -4 41 0 15 5 30 6 32 3 5 -4
126 -7 152 -3 6 1 24 3 40 3 28 2 30 4 30 45 0 23 3 42 6 42 4 0 3 16 -1 35
-4 19 -5 35 -1 35 7 0 6 99 -2 106 -3 4 -2 17 3 30 6 14 6 26 0 29 -5 3 -6 15
0 29 4 12 4 29 0 36 -5 8 -5 21 0 31 5 9 7 19 4 22 -8 8 -10 127 -3 127 4 0 3
16 -1 35 -4 19 -5 35 -1 35 5 0 5 20 1 45 -4 25 -4 45 1 45 4 0 3 16 -1 35 -4
19 -5 35 -1 35 7 0 6 99 -2 106 -3 4 -2 17 3 30 6 14 6 26 0 29 -5 3 -6 15 0
29 4 12 4 29 0 36 -5 8 -5 21 0 31 5 9 7 19 4 22 -8 8 -10 127 -3 127 4 0 3
16 -1 35 -4 19 -5 35 -1 35 5 0 5 20 1 45 -4 25 -4 45 1 45 4 0 3 16 -1 35 -4
19 -5 35 -1 35 7 0 6 99 -2 106 -3 4 -2 17 3 30 6 14 6 26 0 29 -5 3 -6 15 0
29 4 12 4 29 0 36 -5 8 -5 21 0 31 5 9 7 19 4 22 -8 8 -10 127 -3 127 4 0 3
16 -1 35 -4 19 -5 35 -1 35 3 0 6 23 6 50 0 28 -3 50 -7 50 -4 0 -3 14 2 30 5
17 5 30 0 30 -5 0 -5 13 0 30 5 17 5 30 0 30 -4 0 -5 15 -1 33 5 18 5 41 1 51
-3 10 -3 40 0 67 4 27 3 49 -1 49 -4 0 -4 14 1 30 5 17 5 30 0 30 -5 0 -5 13
0 30 5 17 5 30 0 30 -4 0 -5 15 -1 33 5 18 5 41 1 52 -4 10 -4 35 0 55 4 20 4
45 0 56 -4 10 -4 31 1 47 4 15 4 27 -1 27 -4 0 -4 16 0 35 4 19 4 35 0 35 -5
0 -5 14 0 30 5 17 6 30 2 30 -4 0 -7 25 -7 55 0 30 3 55 6 55 4 0 3 16 -1 35
-4 19 -5 35 -1 35 7 0 6 99 -2 106 -3 4 -2 17 3 30 6 14 6 26 0 29 -5 3 -6 15
0 29 4 12 4 29 0 36 -5 8 -5 21 0 31 5 9 7 19 4 22 -8 8 -10 127 -3 127 4 0 3
16 -1 35 -4 19 -5 35 -1 35 7 0 5 99 -2 107 -3 2 -1 18 3 34 5 16 5 29 0 29
-4 0 -4 16 0 35 4 19 4 35 0 35 -5 0 -5 14 0 30 5 17 5 30 1 30 -4 0 -4 27 -1
60 3 33 3 60 -1 60 -4 0 -4 14 1 30 5 17 5 30 0 30 -5 0 -5 13 0 30 5 17 5 30
0 30 -4 0 -5 15 -1 33 5 18 5 41 1 51 -3 10 -3 40 0 67 4 27 3 49 -1 49 -4 0
-4 14 1 30 5 17 5 30 0 30 -5 0 -5 13 0 30 5 17 5 30 0 30 -4 0 -5 15 -1 33 5
18 5 41 1 51 -3 10 -3 40 0 67 4 27 3 49 -1 49 -4 0 -4 14 1 30 5 17 5 30 0
30 -5 0 -5 13 0 30 5 17 5 30 0 30 -4 0 -5 15 -1 33 5 18 5 41 1 51 -3 10 -3
40 0 67 4 27 3 49 -1 49 -4 0 -4 14 1 30 5 17 5 30 0 30 -5 0 -5 13 0 30 5 17
5 30 0 30 -4 0 -5 15 -1 33 5 18 5 41 1 52 -4 10 -4 35 0 55 4 20 4 45 0 56
-4 10 -4 31 1 47 4 15 4 27 -1 27 -4 0 -4 16 0 35 4 19 4 35 0 35 -5 0 -5 14
0 30 5 17 6 30 2 30 -4 0 -7 25 -7 55 0 30 3 55 6 55 4 0 3 16 -1 35 -4 19 -5
35 -1 35 7 0 6 99 -2 106 -3 4 -2 17 3 30 6 14 6 26 0 29 -5 3 -6 15 0 29 4
12 4 29 0 36 -5 8 -5 21 0 31 5 9 7 19 4 22 -8 8 -10 127 -3 127 4 0 3 16 -1
35 -4 19 -5 35 -1 35 7 0 5 99 -2 107 -3 2 -1 18 3 34 5 16 5 29 0 29 -4 0 -4
16 0 35 4 19 4 35 0 35 -5 0 -5 14 0 30 5 17 5 30 1 30 -4 0 -4 27 -1 60 3 33
3 60 -1 60 -4 0 -4 14 1 30 5 17 5 30 1 30 -5 0 -6 11 -3 25 2 14 0 25 -4 26
-35 4 -6787 3 -6802 -1z m3523 -544 c22 -10 54 -24 72 -32 51 -23 150 -102
197 -157 45 -54 106 -150 111 -177 6 -31 39 -90 51 -90 10 0 180 84 216 106 7
5 15 9 18 10 3 0 21 8 40 16 40 19 69 28 74 25 1 -1 10 4 19 12 10 7 17 11 17
7 0 -3 12 -1 28 6 43 17 177 19 236 4 101 -27 180 -77 274 -175 117 -122 160
-291 124 -486 -7 -38 -15 -81 -18 -95 -3 -14 -12 -51 -21 -83 -9 -32 -13 -60
-10 -63 3 -3 27 5 54 18 79 40 143 52 273 51 52 -1 106 -4 120 -8 14 -3 36 -8
50 -11 14 -2 51 -18 83 -34 128 -67 244 -203 309 -364 22 -53 33 -176 19 -205
-42 -83 -63 -119 -120 -206 -36 -55 -68 -102 -72 -105 -3 -3 -15 -20 -25 -39
-10 -18 -24 -43 -31 -54 -14 -25 4 -44 69 -71 24 -10 52 -22 63 -27 11 -5 33
-13 49 -19 73 -27 184 -116 257 -207 38 -49 83 -159 95 -233 26 -169 -30 -337
-158 -470 -57 -59 -85 -82 -139 -111 -24 -13 -46 -26 -49 -29 -6 -7 -73 -27
-115 -34 -62 -12 -90 -23 -93 -37 -1 -9 45 -82 103 -164 125 -176 179 -279
178 -345 -1 -131 -88 -277 -310 -519 l-41 -45 -260 0 -261 0 2 -230 1 -231
-26 -50 c-90 -169 -249 -288 -428 -322 -53 -10 -170 -6 -215 7 -68 21 -254
121 -263 142 -2 5 -8 8 -14 8 -5 0 -30 14 -54 31 -25 17 -51 28 -59 25 -8 -3
-40 -56 -71 -118 -70 -140 -102 -188 -175 -260 -59 -58 -172 -121 -239 -134
-53 -11 -161 -11 -195 -2 -16 5 -41 11 -55 14 -29 6 -135 61 -170 89 -59 46
-157 155 -182 200 -22 43 -55 151 -74 245 -12 63 -12 63 -67 17 -137 -116
-363 -258 -381 -240 -3 3 -6 0 -6 -7 0 -7 -2 -11 -5 -8 -3 3 -29 0 -58 -7 -46
-11 -135 -11 -177 -2 -33 8 -138 55 -150 67 -3 3 -21 17 -40 32 -84 63 -162
151 -195 220 -38 78 -48 192 -31 338 4 36 9 90 11 121 l4 55 -172 2 c-348 2
-381 12 -521 147 -108 105 -164 233 -160 367 3 104 9 126 65 266 7 17 17 32
21 32 4 0 8 6 8 14 0 12 83 128 119 166 26 26 66 74 74 86 4 7 -24 17 -81 29
-155 31 -195 50 -282 134 -148 144 -210 269 -204 416 4 112 9 135 61 248 20
42 40 77 45 77 4 0 8 6 8 14 0 8 37 52 83 98 88 89 158 131 237 143 50 7 53 9
56 32 3 15 -33 103 -46 113 -12 10 -80 127 -100 175 -84 192 -84 378 -2 510
31 49 133 151 193 192 89 61 120 67 374 66 l230 -2 -3 47 c-1 26 -3 53 -2 60
1 29 1 52 0 130 -1 46 1 86 4 89 2 3 1 15 -4 28 -5 13 -6 26 -2 29 3 4 7 28 8
54 6 101 40 183 103 240 63 59 181 126 236 136 82 15 120 19 203 21 169 4 239
-25 389 -161 42 -38 92 -80 111 -93 32 -21 35 -22 51 -7 9 10 17 36 18 64 1
26 2 47 3 47 0 0 2 25 4 57 4 94 63 194 166 279 46 38 163 91 230 104 12 2 25
7 28 10 3 3 60 4 126 1 84 -2 133 -8 161 -20z"/>
<path d="M3665 6329 c-47 -7 -91 -24 -110 -42 -7 -6 -22 -19 -35 -27 -44 -30
-66 -100 -75 -241 -20 -307 -24 -447 -24 -834 -1 -377 4 -504 23 -600 3 -11 5
-28 5 -37 1 -28 16 -21 34 15 25 50 76 138 103 179 13 21 24 40 24 42 0 3 13
27 29 54 113 192 227 410 283 542 78 184 104 306 102 480 -1 185 -22 285 -77
367 -55 83 -161 121 -282 102z"/>
<path d="M2496 6052 c-33 -11 -65 -33 -102 -69 -115 -116 -104 -196 76 -548
123 -240 133 -259 143 -263 4 -2 7 -8 7 -13 0 -5 52 -102 115 -214 63 -113
115 -210 115 -215 0 -6 3 -10 8 -10 4 0 18 -21 30 -47 13 -27 34 -66 47 -88
13 -22 35 -60 48 -85 84 -155 140 -250 148 -250 5 0 9 19 10 43 0 23 2 60 4
82 17 186 25 727 11 835 -11 98 -17 128 -32 187 -46 179 -126 318 -270 467
-163 170 -258 220 -358 188z"/>
<path d="M4735 6020 c-22 -10 -52 -31 -66 -46 -43 -47 -178 -254 -318 -489
-71 -121 -135 -225 -141 -232 -5 -7 -10 -17 -10 -24 0 -6 -8 -23 -19 -37 -10
-15 -37 -62 -59 -104 -23 -42 -56 -100 -73 -130 -42 -71 -169 -331 -169 -346
0 -8 7 -9 28 -1 34 12 175 82 182 90 3 3 41 25 85 49 76 41 305 180 370 225
221 150 407 353 486 530 12 28 27 61 34 75 7 14 16 43 20 65 5 22 9 42 10 45
18 67 27 201 15 230 -14 34 -100 85 -180 108 -47 13 -158 9 -195 -8z"/>
<path d="M1618 5203 c-39 -11 -49 -20 -67 -56 -28 -58 -54 -163 -54 -219 0
-36 7 -57 28 -88 42 -60 153 -160 253 -227 48 -32 89 -60 92 -63 3 -3 16 -12
30 -20 14 -7 120 -71 235 -141 116 -69 233 -139 260 -154 336 -190 533 -291
555 -283 8 2 -110 255 -150 318 -5 8 -35 60 -66 115 -32 55 -61 102 -66 103
-4 2 -8 8 -8 12 0 9 -38 69 -66 105 -8 11 -23 32 -32 48 -9 15 -20 27 -24 27
-4 0 -8 7 -8 15 0 8 -3 15 -8 15 -4 0 -14 11 -22 24 -46 73 -222 257 -290 303
-25 17 -74 45 -109 63 -71 35 -247 101 -254 94 -2 -3 -16 0 -31 6 -43 16 -148
18 -198 3z"/>
<path d="M5668 5204 c-3 -2 -22 -6 -44 -10 -21 -3 -43 -9 -49 -14 -5 -4 -26
-11 -45 -15 -19 -4 -41 -11 -50 -16 -8 -4 -53 -26 -100 -48 -110 -51 -428
-223 -460 -248 -8 -6 -18 -12 -23 -12 -4 0 -17 -7 -30 -15 -29 -18 -225 -128
-257 -143 -14 -7 -43 -24 -65 -36 -51 -30 -147 -84 -290 -161 -112 -62 -113
-61 73 -63 92 0 353 -3 581 -5 l414 -5 91 44 c50 24 98 48 106 53 8 5 36 20
61 34 148 80 316 231 365 329 46 89 28 174 -54 260 -52 54 -96 74 -164 75 -31
0 -58 -2 -60 -4z"/>
<path d="M4503 4092 c-24 -2 -43 -7 -43 -13 0 -5 6 -9 14 -9 8 0 16 -4 18 -8
3 -7 213 -132 222 -132 2 0 34 -18 70 -40 36 -22 70 -40 75 -40 5 0 16 -6 23
-12 7 -7 33 -23 58 -35 25 -12 72 -37 105 -56 33 -18 105 -57 160 -86 55 -30
114 -62 130 -72 41 -24 103 -37 141 -29 16 4 39 4 50 0 10 -4 29 -4 41 1 13 5
25 4 28 -2 4 -5 10 -7 15 -4 4 2 70 7 146 10 77 2 153 7 169 10 17 3 53 10 80
15 63 11 165 49 165 61 0 5 6 9 13 9 13 0 51 51 66 91 12 34 15 87 6 126 -17
75 -121 139 -253 158 -15 2 -43 6 -62 9 -84 13 -521 32 -980 42 -135 3 -283 6
-330 7 -47 1 -104 1 -127 -1z"/>
<path d="M1392 4075 c-48 -9 -71 -20 -98 -46 -33 -32 -86 -110 -90 -134 -1 -5
-9 -28 -17 -50 -29 -81 -9 -143 74 -223 l52 -50 246 -2 c408 -4 1099 -4 1209
0 115 4 173 21 150 43 -21 21 -82 58 -203 122 -60 33 -141 76 -180 97 -38 21
-146 76 -240 122 -162 80 -222 100 -325 112 -25 2 -63 7 -85 10 -89 12 -431
11 -493 -1z"/>
<path d="M4470 3708 c0 -10 67 -141 120 -233 13 -22 37 -65 53 -95 114 -207
246 -397 387 -554 92 -103 256 -256 274 -256 4 0 16 -8 26 -18 60 -56 244
-128 334 -131 161 -5 307 113 309 249 1 101 -73 193 -263 326 -58 41 -109 77
-115 82 -12 9 -189 121 -226 142 -14 8 -90 54 -170 101 -79 48 -160 95 -179
106 -472 266 -550 305 -550 281z"/>
<path d="M4339 3273 c-26 -31 -14 -847 16 -1010 6 -34 22 -111 28 -138 17 -69
107 -251 136 -275 3 -3 18 -21 32 -40 41 -55 127 -139 170 -166 129 -81 236
-65 351 52 62 62 75 96 64 162 -7 37 -185 409 -245 510 -17 29 -31 59 -31 67
0 7 -4 15 -9 17 -5 2 -22 31 -39 65 -17 34 -66 124 -108 200 -43 76 -91 163
-107 193 -16 30 -36 62 -43 71 -8 9 -11 19 -7 22 3 4 1 7 -5 7 -7 0 -12 5 -12
10 0 10 -114 200 -149 247 -19 27 -25 28 -42 6z"/>
<path d="M2857 3244 c-2 -3 -96 -7 -208 -10 -202 -4 -248 -7 -404 -19 -86 -6
-202 -31 -222 -47 -7 -6 -13 -8 -13 -5 0 3 -27 -8 -60 -24 -33 -16 -62 -29
-64 -29 -7 0 -151 -83 -156 -90 -3 -4 -15 -13 -28 -19 -24 -13 -40 -25 -97
-73 -53 -46 -79 -117 -79 -223 0 -215 85 -297 267 -259 31 6 57 9 57 7 0 -3 6
-1 13 4 11 10 68 26 76 23 2 -1 7 2 10 7 3 4 23 14 44 21 20 7 75 31 122 53
47 21 88 39 91 38 4 0 10 3 13 8 3 5 31 21 61 36 106 51 481 257 615 338 17
10 41 24 55 32 14 8 75 43 135 79 223 132 230 137 183 139 -13 0 -48 2 -78 4
-132 7 -260 9 -265 3 -4 -3 -19 -2 -35 2 -16 4 -30 6 -33 4z"/>
<path d="M3947 3043 c-16 -32 -36 -71 -46 -88 -10 -16 -39 -70 -66 -120 -26
-49 -51 -94 -55 -100 -5 -5 -53 -98 -108 -207 -127 -247 -209 -438 -228 -528
-42 -203 -39 -410 10 -514 57 -123 174 -197 299 -191 103 6 179 63 218 164 22
55 22 64 22 651 -1 773 -3 990 -11 990 -4 0 -20 -26 -35 -57z"/>
<path d="M3500 2994 c-23 -8 -264 -128 -270 -135 -3 -3 -30 -19 -60 -36 -30
-16 -89 -51 -130 -77 -41 -26 -84 -52 -95 -59 -11 -7 -22 -14 -25 -17 -3 -3
-32 -25 -65 -49 -33 -25 -61 -48 -63 -53 -2 -4 -9 -8 -15 -8 -21 0 -223 -215
-269 -287 -61 -93 -140 -249 -139 -270 0 -2 -7 -22 -15 -45 -20 -58 -26 -180
-11 -230 16 -55 76 -114 129 -129 98 -27 231 -1 293 59 68 65 216 263 248 332
4 8 15 27 25 42 58 89 292 498 284 498 -4 0 -2 4 3 8 6 4 25 34 42 67 96 184
123 239 123 250 0 8 6 20 13 27 17 17 40 96 32 108 -7 11 -12 11 -35 4z"/>
</g>
</svg>
