<?xml version="1.0" standalone="no"?>
<!DOCTYPE svg PUBLIC "-//W3C//DTD SVG 20010904//EN"
 "http://www.w3.org/TR/2001/REC-SVG-20010904/DTD/svg10.dtd">
<svg version="1.0" xmlns="http://www.w3.org/2000/svg"
 width="1517.000000pt" height="385.000000pt" viewBox="0 0 1517.000000 385.000000"
 preserveAspectRatio="xMidYMid meet">

<g transform="translate(0.000000,385.000000) scale(0.100000,-0.100000)"
fill="#000000" stroke="none">
<path d="M30 1920 l0 -1880 1940 0 1940 0 0 1880 0 1880 -1940 0 -1940 0 0
-1880z m2035 1570 c87 -38 188 -148 201 -218 4 -20 9 -40 11 -44 4 -8 45 13
133 68 71 45 120 57 200 52 115 -9 201 -68 256 -178 37 -73 38 -164 5 -268
-13 -40 -21 -75 -19 -78 3 -2 25 7 49 20 82 47 184 43 296 -11 137 -67 220
-251 164 -361 -11 -20 -49 -75 -85 -121 -37 -46 -65 -89 -63 -95 2 -6 30 -14
62 -18 143 -18 269 -167 269 -318 0 -151 -126 -300 -269 -318 -32 -4 -60 -12
-62 -18 -2 -6 26 -49 63 -95 36 -46 75 -102 85 -124 44 -95 10 -192 -113 -318
l-77 -79 -143 3 -143 4 2 -40 c10 -196 9 -208 -20 -267 -52 -107 -146 -169
-267 -176 -95 -5 -161 18 -247 88 -34 27 -66 50 -72 50 -5 0 -15 -17 -21 -37
-28 -88 -83 -175 -134 -213 -116 -87 -283 -76 -395 26 -67 59 -93 114 -99 200
-2 41 -7 74 -9 74 -2 0 -41 -31 -86 -69 -111 -93 -169 -121 -250 -121 -48 0
-76 6 -116 26 -62 31 -140 106 -166 160 -27 55 -32 169 -10 234 25 75 14 79
-160 60 -105 -11 -152 5 -221 72 -78 75 -99 125 -99 228 0 102 17 141 106 242
33 36 59 71 59 76 0 5 -26 12 -58 15 -76 6 -129 34 -185 97 -122 136 -113 320
22 463 51 54 98 77 155 77 43 0 40 24 -10 92 -59 80 -83 135 -91 210 -13 125
57 248 169 299 46 21 67 24 164 23 61 -1 122 -4 136 -7 l26 -7 -6 150 c-6 173
-1 192 66 250 76 67 144 94 237 94 120 0 192 -42 293 -169 l31 -40 1 66 c0 82
23 156 62 203 82 100 252 139 373 86z"/>
<path d="M1865 3342 c-54 -26 -73 -49 -86 -108 -14 -62 -22 -628 -12 -797 l8
-128 103 173 c201 336 239 440 228 628 -7 133 -26 192 -71 220 -49 30 -121 35
-170 12z"/>
<path d="M1213 3185 c-41 -17 -83 -89 -83 -141 0 -54 22 -98 263 -523 l212
-374 6 74 c4 41 7 180 8 310 1 274 -3 298 -81 427 -62 103 -142 190 -201 220
-51 25 -79 27 -124 7z"/>
<path d="M2485 3159 c-45 -40 -116 -148 -240 -364 -96 -168 -225 -412 -225
-427 0 -20 257 119 411 223 140 94 231 213 284 374 40 118 26 167 -60 206 -22
10 -61 19 -87 19 -39 0 -54 -6 -83 -31z"/>
<path d="M724 2706 c-36 -16 -43 -29 -51 -106 -12 -121 22 -158 292 -319 204
-122 514 -291 534 -291 8 0 -16 55 -59 138 -153 292 -287 456 -430 525 -126
62 -224 80 -286 53z"/>
<path d="M2980 2695 c-69 -21 -228 -104 -528 -275 l-273 -155 68 -6 c37 -4
181 -7 318 -7 214 -1 257 1 301 16 92 32 206 104 282 178 71 71 72 72 72 124
0 49 -3 56 -44 96 -41 41 -47 44 -97 43 -30 0 -74 -7 -99 -14z"/>
<path d="M610 2071 c-19 -4 -45 -14 -58 -22 -29 -18 -63 -89 -70 -145 -4 -38
-1 -49 19 -70 54 -59 56 -59 414 -62 182 -1 392 1 469 5 l139 8 -164 92 c-322
179 -365 194 -569 199 -80 2 -161 0 -180 -5z"/>
<path d="M2355 2066 c47 -32 348 -202 435 -244 l95 -47 160 0 c127 0 172 4
219 18 114 35 155 111 103 188 -30 45 -60 58 -159 70 -84 10 -576 28 -768 29
-91 0 -102 -2 -85 -14z"/>
<path d="M2357 1853 c8 -22 124 -230 166 -298 108 -174 263 -332 382 -391 126
-62 213 -57 279 17 30 32 36 47 36 82 0 68 -44 121 -172 208 -158 107 -665
399 -692 399 -3 0 -3 -8 1 -17z"/>
<path d="M2276 1563 c-10 -119 -7 -393 5 -480 14 -100 39 -175 85 -252 67
-112 149 -181 217 -181 76 0 153 58 163 122 5 31 -8 62 -98 239 -147 285 -344
629 -362 629 -2 0 -6 -34 -10 -77z"/>
<path d="M1114 1589 c-118 -15 -196 -46 -329 -130 -87 -55 -105 -83 -105 -164
0 -196 104 -213 400 -65 100 50 396 216 540 304 l85 51 -55 7 c-77 9 -462 7
-536 -3z"/>
<path d="M1972 1315 c-171 -307 -222 -439 -222 -576 0 -174 88 -274 221 -253
68 11 106 54 119 134 11 70 12 642 1 802 l-6 97 -113 -204z"/>
<path d="M1735 1422 c-278 -148 -411 -247 -486 -361 -60 -92 -113 -221 -112
-277 0 -85 74 -152 155 -141 50 7 105 43 151 99 82 100 397 666 397 712 0 23
-5 21 -105 -32z"/>
<path d="M4273 2453 c5 -864 11 -1027 43 -1183 44 -215 111 -320 314 -498 150
-131 294 -198 492 -228 82 -13 155 -15 363 -11 292 6 351 14 477 61 125 47
238 118 339 214 98 93 159 179 225 316 42 88 44 96 59 256 19 212 33 604 40
1140 3 234 8 509 11 613 l6 187 -266 0 -266 0 0 -687 c0 -975 -14 -1226 -77
-1366 -59 -132 -257 -253 -470 -287 -147 -24 -335 -7 -441 40 -61 27 -172 111
-226 171 -116 129 -130 273 -142 1467 l-7 662 -240 0 -239 0 5 -867z"/>
<path d="M7070 1940 l0 -1380 260 0 260 0 0 499 0 498 388 6 c493 7 588 20
756 104 88 44 155 94 233 175 161 166 213 303 213 563 0 414 -146 656 -493
820 -180 85 -283 95 -1064 95 l-553 0 0 -1380z m1150 970 c332 -41 520 -255
471 -536 -17 -94 -62 -206 -104 -257 -47 -58 -137 -104 -250 -129 -78 -16
-143 -20 -419 -25 l-328 -5 0 481 0 481 273 0 c150 0 311 -5 357 -10z"/>
<path d="M9286 3283 c24 -58 761 -1906 932 -2338 l150 -380 243 -3 244 -2 543
1362 c356 892 539 1365 533 1371 -18 18 -105 26 -301 26 l-195 1 -32 -83 c-18
-45 -116 -296 -218 -557 -103 -261 -265 -675 -360 -920 -95 -245 -181 -464
-190 -488 l-18 -43 -244 633 c-134 348 -316 818 -403 1043 l-158 410 -271 3
-271 2 16 -37z"/>
<path d="M14622 3305 c-92 -20 -161 -64 -514 -323 l-158 -116 0 -233 0 -234
58 43 c31 23 152 112 267 196 l210 154 7 -358 c4 -198 10 -700 14 -1117 l6
-757 239 0 239 0 0 1380 0 1380 -152 -1 c-89 0 -179 -6 -216 -14z"/>
<path d="M12310 1760 l0 -200 640 0 640 0 0 200 0 200 -640 0 -640 0 0 -200z"/>
</g>
</svg>
